<svg width="218" height="73" viewBox="0 0 218 73" fill="none" xmlns="http://www.w3.org/2000/svg">
<rect x="2" y="1.31885" width="8.98171" height="54.6906" fill="white"/>
<rect width="8.98173" height="54.6906" transform="matrix(-0.999995 0.00313949 -0.001771 -0.999999 30 55.6904)" fill="white"/>
<rect width="9.6214" height="52.0529" transform="matrix(0.839695 -0.543058 0.342728 0.939435 2.95801 6.86279)" fill="white"/>
<path d="M20 56L1 2" stroke="#901F27"/>
<path d="M31 56L12 2" stroke="#901F27"/>
<path d="M52.2 50.54C47.44 50.54 44.02 49.2 41.94 46.52C39.9 43.8 38.88 39.88 38.88 34.76V16.34C38.88 11.3 39.92 7.48 42 4.88C44.08 2.28 47.48 0.979998 52.2 0.979998C56.92 0.979998 60.3 2.3 62.34 4.94C64.42 7.54 65.46 11.34 65.46 16.34V34.82C65.46 39.86 64.42 43.74 62.34 46.46C60.26 49.18 56.88 50.54 52.2 50.54ZM52.2 45.2C54.72 45.2 56.42 44.46 57.3 42.98C58.18 41.5 58.62 39.26 58.62 36.26V14.96C58.62 12 58.18 9.82 57.3 8.42C56.42 6.98 54.72 6.26 52.2 6.26C49.64 6.26 47.92 6.98 47.04 8.42C46.16 9.82 45.72 12 45.72 14.96V36.26C45.72 39.26 46.16 41.5 47.04 42.98C47.92 44.46 49.64 45.2 52.2 45.2Z" fill="white"/>
<path d="M81.36 5.07H73.825V0.449997H94.89V5.07H87.575V45H81.36V5.07Z" fill="white"/>
<path d="M106.465 1.45H123.68V5.905H112.68V20.755H121.205V25.155H112.68V46H106.465V1.45Z" fill="white"/>
<path d="M140.78 0.399996H147.56V44.14H159.98V49H140.78V0.399996Z" fill="white"/>
<path d="M168.14 0.399996H174.8V49H168.14V0.399996Z" fill="white"/>
<path d="M197.83 26.44L187.04 1.35H193.865L201.86 19.94L209.14 1.35H215.965L204.915 27.025L216.485 54H209.66L201.08 34.175L193.67 54H186.845L197.83 26.44Z" fill="white"/>
</svg>
