<svg width="38" height="30" viewBox="0 0 38 30" fill="none" xmlns="http://www.w3.org/2000/svg">
<path d="M18.7908 11.5102C20.6412 14.4178 21.6084 17.4426 21.7176 19.9513C21.8281 22.4905 21.0679 24.2851 19.75 25.1238C18.4321 25.9625 16.4845 25.8913 14.2309 24.7159C12.0045 23.5547 9.67387 21.3976 7.82343 18.49C5.97299 15.5824 5.00578 12.5576 4.89661 10.0489C4.78612 7.50967 5.5463 5.71515 6.86422 4.87641C8.18214 4.03766 10.1297 4.10891 12.3833 5.2843C14.6097 6.44552 16.9403 8.60262 18.7908 11.5102Z" stroke="#901F27" stroke-width="2"/>
<path d="M27.8942 18.9737C25.6605 21.5983 23.0546 23.4133 20.6893 24.2564C18.2951 25.1097 16.3563 24.9116 15.1667 23.8991C13.9771 22.8866 13.4717 21.0044 13.9313 18.5047C14.3855 16.035 15.7606 13.1725 17.9944 10.5479C20.2282 7.92337 22.8341 6.10835 25.1994 5.26531C27.5936 4.41199 29.5323 4.61004 30.722 5.62255C31.9116 6.63506 32.417 8.51727 31.9573 11.017C31.5032 13.4867 30.128 16.3491 27.8942 18.9737Z" stroke="#AF3535" stroke-width="2"/>
</svg>
